<?xml version="1.0" encoding="UTF-8"?>
<svg width="3002px" height="3002px" viewBox="0 0 3002 3002" version="1.1" xmlns="http://www.w3.org/2000/svg" xmlns:xlink="http://www.w3.org/1999/xlink">
    <!-- Generator: Sketch 57.1 (83088) - https://sketch.com -->
    <title>Combined Shape</title>
    <desc>Created with Sketch.</desc>
    <defs>
        <linearGradient x1="0%" y1="100%" x2="0%" y2="0%" id="linearGradient-1">
            <stop stop-color="rgb(244,187,251)" offset="0%"></stop>
            <stop stop-color="rgb(0,27,244)" offset="50%"></stop>
            <stop stop-color="rgb(40, 27, 61)" offset="80%"></stop>
        </linearGradient>
    </defs>
    <g id="Page-1" stroke="none" stroke-width="1" fill="none" fill-rule="evenodd">
        <rect x="0" y="0" width="100%" height="100%" fill="white" />
        <rect x="0" y="0" width="100%" height="100%" fill="url(#linearGradient-1)" />
        <g id="download" transform="translate(-75, 0)" fill="#ff40ff" stroke="none">
            <path d="M1696.5332,560.126465 L849.304199,560.126465 L849.304199,2443 L1104.37012,2443 L1104.37012,1647.04053 L1696.5332,1647.04053 C1886.23142,1647.04053 2026.79398,1592.5672 2118.2251,1483.6189 C2209.65622,1374.6706 2255.37109,1246.71167 2255.37109,1099.73828 C2255.37109,928.838989 2204.10208,796.180404 2101.5625,701.758545 C1999.02292,607.336686 1864.01451,560.126465 1696.5332,560.126465 L1696.5332,560.126465 Z M1611.93848,779.303711 C1710.20557,779.303711 1787.53634,792.548207 1843.93311,819.037598 C1946.47268,868.598392 1997.7417,962.591593 1997.7417,1101.02002 C1997.7417,1224.06751 1962.06701,1309.94312 1890.71655,1358.64941 C1819.3661,1407.35571 1726.441,1431.7085 1611.93848,1431.7085 L1611.93848,1431.7085 L1104.37012,1431.7085 L1104.37012,779.303711 Z" id="Combined-Shape"></path>
        </g>
        <g id="download" transform="translate(0, 0)" fill="#0dfcff" stroke="none">
            <path d="M1696.5332,560.126465 L849.304199,560.126465 L849.304199,2443 L1104.37012,2443 L1104.37012,1647.04053 L1696.5332,1647.04053 C1886.23142,1647.04053 2026.79398,1592.5672 2118.2251,1483.6189 C2209.65622,1374.6706 2255.37109,1246.71167 2255.37109,1099.73828 C2255.37109,928.838989 2204.10208,796.180404 2101.5625,701.758545 C1999.02292,607.336686 1864.01451,560.126465 1696.5332,560.126465 L1696.5332,560.126465 Z M1611.93848,779.303711 C1710.20557,779.303711 1787.53634,792.548207 1843.93311,819.037598 C1946.47268,868.598392 1997.7417,962.591593 1997.7417,1101.02002 C1997.7417,1224.06751 1962.06701,1309.94312 1890.71655,1358.64941 C1819.3661,1407.35571 1726.441,1431.7085 1611.93848,1431.7085 L1611.93848,1431.7085 L1104.37012,1431.7085 L1104.37012,779.303711 Z" id="Combined-Shape"></path>
        </g>
        <g id="download" transform="translate(75, 0)" fill="white" stroke="none">
            <path d="M1696.5332,560.126465 L849.304199,560.126465 L849.304199,2443 L1104.37012,2443 L1104.37012,1647.04053 L1696.5332,1647.04053 C1886.23142,1647.04053 2026.79398,1592.5672 2118.2251,1483.6189 C2209.65622,1374.6706 2255.37109,1246.71167 2255.37109,1099.73828 C2255.37109,928.838989 2204.10208,796.180404 2101.5625,701.758545 C1999.02292,607.336686 1864.01451,560.126465 1696.5332,560.126465 L1696.5332,560.126465 Z M1611.93848,779.303711 C1710.20557,779.303711 1787.53634,792.548207 1843.93311,819.037598 C1946.47268,868.598392 1997.7417,962.591593 1997.7417,1101.02002 C1997.7417,1224.06751 1962.06701,1309.94312 1890.71655,1358.64941 C1819.3661,1407.35571 1726.441,1431.7085 1611.93848,1431.7085 L1611.93848,1431.7085 L1104.37012,1431.7085 L1104.37012,779.303711 Z" id="Combined-Shape"></path>
        </g>
    </g>
</svg>