<svg height='100px' width='100px'  fill="#000000" xmlns="http://www.w3.org/2000/svg" xmlns:xlink="http://www.w3.org/1999/xlink" version="1.1" x="0px" y="0px" viewBox="0 0 64 64" enable-background="new 0 0 64 64" xml:space="preserve"><g><g><g><path d="M39.703,39.322H7.936c-5.02,0-6.035-0.821-6.035-4.885V13.483c0-4.226,1.251-4.4,6.035-4.4h31.768     c4.784,0,6.035,0.175,6.035,4.4v21.44C45.738,39.147,44.487,39.322,39.703,39.322z M7.936,11.083c-1.532,0-3.269,0-3.745,0.322     c-0.243,0.163-0.29,0.886-0.29,2.078v20.954c0,2.776,0,2.885,4.035,2.885h31.768c1.532,0,3.269,0,3.746-0.322     c0.242-0.163,0.29-0.885,0.29-2.076v-21.44c0-1.192-0.047-1.915-0.29-2.078c-0.477-0.322-2.213-0.322-3.746-0.322H7.936z"></path></g><g><path d="M31.378,43.978H16.261l1.605-6.647h11.905L31.378,43.978z M18.801,41.978h10.036l-0.64-2.647H19.44L18.801,41.978z"></path></g></g><g><path d="M46.212,54.917H2.236l5.502-10.389h32.973L46.212,54.917z M5.559,52.917H42.89l-3.382-6.389H8.943L5.559,52.917z"></path></g><g><path d="M58.412,53.536c-0.279,0-0.583-0.006-0.914-0.012c-0.382-0.007-0.802-0.015-1.262-0.015h-3.89    c-3.972,0-5.862-0.748-5.862-5.001V14.675c0-4.333,2.01-4.535,5.862-4.535h3.89c3.853,0,5.863,0.202,5.863,4.535V49.6    C62.1,52.927,60.858,53.536,58.412,53.536z M52.347,12.14c-3.754,0-3.862,0.071-3.862,2.535v33.834    c0,2.548,0.286,3.001,3.862,3.001h3.89c0.474,0,0.905,0.008,1.299,0.015c0.318,0.006,0.609,0.012,0.877,0.012    c1.624,0,1.688,0,1.688-1.937V14.675c0-2.464-0.108-2.535-3.863-2.535H52.347z"></path></g><g><path d="M55.423,39.413c0,0.683-0.495,1.233-1.107,1.233l0,0c-0.61,0-1.107-0.551-1.107-1.233l0,0    c0-0.682,0.497-1.233,1.107-1.233l0,0C54.928,38.18,55.423,38.731,55.423,39.413L55.423,39.413z"></path></g><g><path d="M55.423,44.525c0,0.683-0.495,1.235-1.107,1.235l0,0c-0.61,0-1.107-0.553-1.107-1.235l0,0c0-0.68,0.497-1.232,1.107-1.232    l0,0C54.928,43.293,55.423,43.846,55.423,44.525L55.423,44.525z"></path></g><g><rect x="50.352" y="16.598" width="7.884" height="2"></rect></g><g><rect x="50.352" y="20.688" width="7.884" height="2"></rect></g><g><rect x="50.352" y="24.778" width="7.884" height="2"></rect></g></g></svg>