<svg xmlns="http://www.w3.org/2000/svg" xmlns:xlink="http://www.w3.org/1999/xlink" width="100" height="100" viewBox="0 0 100 100"><g transform="translate(50 50) scale(-0.69 0.69) rotate(0) translate(-50 -50)" style="fill:#02a9e6"><svg fill="#02a9e6" xmlns="http://www.w3.org/2000/svg" xmlns:xlink="http://www.w3.org/1999/xlink" version="1.1" x="0px" y="0px" viewBox="0 0 100 100" enable-background="new 0 0 100 100" xml:space="preserve"><path d="M13.004,12.27c-5.156,5.161-5.158,13.554,0,18.708l4.02,4.018l-0.363,0.363l47.594,49.457  c0.266,0.826,0.701,1.587,1.327,2.216l3.138,3.135c2.132,2.135,5.709,2.135,7.841,0l14.339-14.339c2.136-2.136,2.132-5.705,0-7.841  l-3.138-3.139c-0.64-0.639-1.403-1.064-2.209-1.323L36.093,15.926l-0.363,0.363l-4.019-4.019  C26.555,7.112,18.163,7.112,13.004,12.27C7.849,17.431,18.163,7.112,13.004,12.27z M84.627,67.986l3.135,3.138  c0.428,0.429,0.428,1.141,0,1.568L73.425,87.031c-0.424,0.425-1.144,0.425-1.567,0l-3.138-3.138  c-0.225-0.225-0.318-0.498-0.318-0.802l15.42-15.42C84.115,67.668,84.409,67.769,84.627,67.986z M80.254,64.578  c-0.109,0.094-0.23,0.166-0.332,0.27l-14.34,14.342c-0.101,0.101-0.179,0.222-0.27,0.329l-42.438-44.1L36.152,22.14L80.254,64.578z   M22.681,24.414c-3.187,0-3.187-4.935,0-4.935C25.847,19.479,25.847,24.414,22.681,24.414  C22.021,24.414,23.337,24.414,22.681,24.414z M28.577,15.408l4.018,4.017l-3.064,3.063c0.475-6.232-7.261-9.897-11.732-5.424  c-4.444,4.436-0.833,12.272,5.422,11.733l-3.062,3.062l-4.016-4.017c-3.383-3.385-3.385-9.049,0-12.434  C19.526,12.023,25.191,12.023,28.577,15.408z"></path><path d="M37.455,71.732c2.015-2.015-1.107-5.17-3.134-3.135L22.873,80.04c-2.023,2.025,1.111,5.159,3.136,3.138L37.455,71.732z"></path><path d="M34.453,63.994c0-1.223-0.994-2.219-2.217-2.219H21.939c-2.859,0-2.859,4.435,0,4.435l10.297,0.003  C33.459,66.213,34.453,65.222,34.453,63.994z"></path><path d="M44.273,84.111V73.816c0-2.862-4.436-2.862-4.436,0v10.295C39.837,86.973,44.273,86.973,44.273,84.111z"></path><path d="M69.329,33.585c-2.024,2.019,1.115,5.16,3.137,3.135l11.445-11.448c2.015-2.015-1.105-5.163-3.138-3.134L69.329,33.585z"></path><path d="M72.331,41.32c0,1.227,0.992,2.22,2.219,2.22h10.295c2.861,0,2.861-4.436,0-4.436L74.55,39.103  C73.323,39.103,72.331,40.097,72.331,41.32z"></path><path d="M62.511,21.205v10.297c0,2.859,4.437,2.859,4.437,0V21.205C66.947,18.345,62.511,18.345,62.511,21.205z"></path></svg></g></svg>