<svg height='100px' width='100px'  fill="#000000" xmlns="http://www.w3.org/2000/svg" xmlns:xlink="http://www.w3.org/1999/xlink" version="1.0" x="0px" y="0px" viewBox="0 0 24 24" enable-background="new 0 0 24 24" xml:space="preserve"><path d="M7,9.7l15-2V4c0-1.2-1.1-2.1-2.3-2l-11,1.5c-1,0.1-1.7,1-1.7,2V9.7z"></path><path d="M9,18c0,1.7-1.6,3.4-3.5,3.9S2,21.4,2,19.7s1.6-3.4,3.5-3.9C7.4,15.4,9,16.3,9,18z"></path><line fill="none" stroke="#000000" stroke-width="2" stroke-miterlimit="10" x1="8" y1="18" x2="8" y2="6"></line><path d="M22,17c0,1.7-1.6,3.4-3.5,3.9S15,20.4,15,18.7s1.6-3.4,3.5-3.9S22,15.3,22,17z"></path><line fill="none" stroke="#000000" stroke-width="2" stroke-miterlimit="10" x1="21" y1="17" x2="21" y2="4"></line></svg>