<svg height='100px' width='100px'  fill="#000000" xmlns="http://www.w3.org/2000/svg" xmlns:xlink="http://www.w3.org/1999/xlink" version="1.1" x="0px" y="0px" viewBox="0 0 64 64" enable-background="new 0 0 64 64" xml:space="preserve"><g><path d="M42.152,61.572H21.849c-6.655,0-6.655-2.627-6.655-10.426L15.192,7.534c-0.009-0.711-0.032-2.377,1.209-3.635   c0.963-0.977,2.457-1.472,4.438-1.472h22.323c1.98,0,3.474,0.495,4.437,1.472c1.241,1.258,1.219,2.924,1.209,3.635l-0.001,0.142   v43.471C48.807,58.945,48.807,61.572,42.152,61.572z M20.839,4.428c-1.426,0-2.44,0.295-3.014,0.876   c-0.654,0.663-0.641,1.627-0.633,2.203l0.001,0.169v43.471c0,8.11,0.174,8.426,4.655,8.426h20.304c4.48,0,4.654-0.315,4.654-8.426   l0.002-43.64c0.008-0.576,0.021-1.54-0.634-2.203c-0.573-0.581-1.587-0.876-3.013-0.876H20.839z"></path><path d="M48.807,49.602H15.193V11.976c0-0.959,0.034-1.773,0.104-2.488l0.087-0.903h33.228l0.09,0.9   c0.07,0.704,0.104,1.519,0.104,2.491V49.602z M17.193,47.602h29.613V11.976c0-0.511-0.01-0.973-0.03-1.392H17.223   c-0.02,0.423-0.03,0.884-0.03,1.392V47.602z"></path><path d="M32,58.174c-1.953,0-3.541-1.589-3.541-3.541c0-1.951,1.588-3.539,3.541-3.539c1.952,0,3.541,1.588,3.541,3.539   C35.541,56.585,33.952,58.174,32,58.174z M32,53.094c-0.85,0-1.541,0.69-1.541,1.539c0,0.85,0.691,1.541,1.541,1.541   s1.541-0.691,1.541-1.541C33.541,53.784,32.85,53.094,32,53.094z"></path></g></svg>