<svg height='100px' width='100px'  fill="#000000" xmlns:x="http://ns.adobe.com/Extensibility/1.0/" xmlns:i="http://ns.adobe.com/AdobeIllustrator/10.0/" xmlns:graph="http://ns.adobe.com/Graphs/1.0/" xmlns="http://www.w3.org/2000/svg" xmlns:xlink="http://www.w3.org/1999/xlink" version="1.1" x="0px" y="0px" viewBox="0 0 100 100" style="enable-background:new 0 0 100 100;" xml:space="preserve"><g><g i:extraneous="self"><g><path d="M16.6,12.1H5.2c-1.5,0-2.7,1.2-2.7,2.7v11.3c0,1.5,1.2,2.7,2.7,2.7h11.3c1.5,0,2.7-1.2,2.7-2.7V14.9     C19.3,13.4,18.1,12.1,16.6,12.1z"></path><path d="M94.8,12.1H33.3c-1.5,0-2.7,1.2-2.7,2.7v11.3c0,1.5,1.2,2.7,2.7,2.7h61.5c1.5,0,2.7-1.2,2.7-2.7V14.9     C97.5,13.4,96.3,12.1,94.8,12.1z"></path><path d="M16.6,41.6H5.2c-1.5,0-2.7,1.2-2.7,2.7v11.3c0,1.5,1.2,2.7,2.7,2.7h11.3c1.5,0,2.7-1.2,2.7-2.7V44.3     C19.3,42.8,18.1,41.6,16.6,41.6z"></path><path d="M94.8,41.6H33.3c-1.5,0-2.7,1.2-2.7,2.7v11.3c0,1.5,1.2,2.7,2.7,2.7h61.5c1.5,0,2.7-1.2,2.7-2.7V44.3     C97.5,42.8,96.3,41.6,94.8,41.6z"></path><path d="M16.6,71.1H5.2c-1.5,0-2.7,1.2-2.7,2.7v11.3c0,1.5,1.2,2.7,2.7,2.7h11.3c1.5,0,2.7-1.2,2.7-2.7V73.8     C19.3,72.3,18.1,71.1,16.6,71.1z"></path><path d="M94.8,71.1H33.3c-1.5,0-2.7,1.2-2.7,2.7v11.3c0,1.5,1.2,2.7,2.7,2.7h61.5c1.5,0,2.7-1.2,2.7-2.7V73.8     C97.5,72.3,96.3,71.1,94.8,71.1z"></path></g></g></g></svg>