<svg height='100px' width='100px'  fill="#000000" xmlns="http://www.w3.org/2000/svg" xmlns:xlink="http://www.w3.org/1999/xlink" xml:space="preserve" version="1.1" style="shape-rendering:geometricPrecision;text-rendering:geometricPrecision;image-rendering:optimizeQuality;" viewBox="0 0 847 847" x="0px" y="0px" fill-rule="evenodd" clip-rule="evenodd"><defs><style type="text/css">
   
    .fil0 {fill:#000000}
   
  </style></defs><g><path class="fil0" d="M579 492l-59 0 0 -18c0,-8 -6,-14 -14,-14l-165 0c-8,0 -14,6 -14,14l0 17 -60 0 155 151 157 -150zm-71 -287l-170 0c-14,0 -14,25 0,25l170 0c15,0 15,-25 0,-25zm0 51l-170 0c-14,0 -14,25 0,25l170 0c15,0 15,-25 0,-25zm0 50l-170 0c-14,0 -14,26 0,26l170 0c15,0 15,-26 0,-26zm0 51l-170 0c-14,0 -14,26 0,26l170 0c15,0 15,-26 0,-26zm0 51l-170 0c-14,0 -14,26 0,26l170 0c15,0 15,-26 0,-26z"></path></g></svg>