<svg xmlns="http://www.w3.org/2000/svg" xmlns:xlink="http://www.w3.org/1999/xlink" width="85.5859375" height="131.90625"><path fill="magenta" stroke="lightcyan" d="M34.56 110.30L34.56 110.30Q29.48 101.12 26.74 96.80L26.74 96.80L23.84 92.26L21.66 88.92Q14.49 77.77 6.73 70.49L6.73 70.49Q11.16 66.83 14.98 66.83L14.98 66.83Q19.69 66.83 23.35 70.27Q27.02 73.72 32.59 83.40L32.59 83.40Q38.94 62.78 48.73 44.30L48.73 44.30Q54.14 34.23 58.38 30.76Q62.62 27.29 69.62 27.29L69.62 27.29Q73.34 27.29 78.80 28.44L78.80 28.44Q64.75 39.76 56.33 55.34Q47.91 70.93 34.56 110.30Z"/></svg>
